<svg width="208" height="208" viewBox="0 0 208 208" fill="none" xmlns="http://www.w3.org/2000/svg">
<g opacity="0.2" filter="url(#filter0_f_399_91)">
<rect x="64" y="64" width="80" height="80" rx="40" fill="#FECB00"/>
</g>
<g filter="url(#filter1_d_399_91)">
<rect x="64" y="64" width="80" height="80" rx="16" fill="white" shape-rendering="crispEdges"/>
<rect x="64.5" y="64.5" width="79" height="79" rx="15.5" stroke="#ABADAF" stroke-opacity="0.1" shape-rendering="crispEdges"/>
<path d="M95 119.75C94.175 119.75 93.4688 119.456 92.8813 118.869C92.2938 118.281 92 117.575 92 116.75V101.75C92 100.925 92.2938 100.219 92.8813 99.6313C93.4688 99.0438 94.175 98.75 95 98.75H96.5V95.75C96.5 93.675 97.2312 91.9062 98.6937 90.4437C100.156 88.9812 101.925 88.25 104 88.25C106.075 88.25 107.844 88.9812 109.306 90.4437C110.769 91.9062 111.5 93.675 111.5 95.75V98.75H113C113.825 98.75 114.531 99.0438 115.119 99.6313C115.706 100.219 116 100.925 116 101.75V116.75C116 117.575 115.706 118.281 115.119 118.869C114.531 119.456 113.825 119.75 113 119.75H95ZM104 112.25C104.825 112.25 105.531 111.956 106.119 111.369C106.706 110.781 107 110.075 107 109.25C107 108.425 106.706 107.719 106.119 107.131C105.531 106.544 104.825 106.25 104 106.25C103.175 106.25 102.469 106.544 101.881 107.131C101.294 107.719 101 108.425 101 109.25C101 110.075 101.294 110.781 101.881 111.369C102.469 111.956 103.175 112.25 104 112.25ZM99.5 98.75H108.5V95.75C108.5 94.5 108.062 93.4375 107.188 92.5625C106.312 91.6875 105.25 91.25 104 91.25C102.75 91.25 101.688 91.6875 100.812 92.5625C99.9375 93.4375 99.5 94.5 99.5 95.75V98.75Z" fill="#705900"/>
</g>
<defs>
<filter id="filter0_f_399_91" x="0" y="0" width="208" height="208" filterUnits="userSpaceOnUse" color-interpolation-filters="sRGB">
<feFlood flood-opacity="0" result="BackgroundImageFix"/>
<feBlend mode="normal" in="SourceGraphic" in2="BackgroundImageFix" result="shape"/>
<feGaussianBlur stdDeviation="32" result="effect1_foregroundBlur_399_91"/>
</filter>
<filter id="filter1_d_399_91" x="32" y="40" width="144" height="144" filterUnits="userSpaceOnUse" color-interpolation-filters="sRGB">
<feFlood flood-opacity="0" result="BackgroundImageFix"/>
<feColorMatrix in="SourceAlpha" type="matrix" values="0 0 0 0 0 0 0 0 0 0 0 0 0 0 0 0 0 0 127 0" result="hardAlpha"/>
<feOffset dy="8"/>
<feGaussianBlur stdDeviation="16"/>
<feComposite in2="hardAlpha" operator="out"/>
<feColorMatrix type="matrix" values="0 0 0 0 0.172549 0 0 0 0 0.184314 0 0 0 0 0.192157 0 0 0 0.04 0"/>
<feBlend mode="normal" in2="BackgroundImageFix" result="effect1_dropShadow_399_91"/>
<feBlend mode="normal" in="SourceGraphic" in2="effect1_dropShadow_399_91" result="shape"/>
</filter>
</defs>
</svg>
