<svg width="330" height="192" viewBox="0 0 330 192" fill="none" xmlns="http://www.w3.org/2000/svg">
<rect width="330" height="192" rx="16" fill="url(#paint0_linear_137_86)"/>
<rect x="0.5" y="0.5" width="329" height="191" rx="15.5" stroke="#E2E8F0" stroke-opacity="0.5"/>
<g opacity="0.8">
<path d="M165 126C160.85 126 156.95 125.213 153.3 123.638C149.65 122.062 146.475 119.925 143.775 117.225C141.075 114.525 138.938 111.35 137.362 107.7C135.787 104.05 135 100.15 135 96H141C141 99.3 141.625 102.413 142.875 105.338C144.125 108.263 145.837 110.812 148.012 112.987C150.188 115.162 152.738 116.887 155.663 118.162C158.587 119.438 161.7 120.075 165 120.075C171.7 120.075 177.375 117.75 182.025 113.1C186.675 108.45 189 102.775 189 96.075C189 89.375 186.675 83.7 182.025 79.05C177.375 74.4 171.7 72.075 165 72.075C160.55 72.075 156.513 73.1625 152.888 75.3375C149.263 77.5125 146.4 80.4 144.3 84H153V90H135V72H141V78C143.75 74.35 147.2 71.4375 151.35 69.2625C155.5 67.0875 160.05 66 165 66C169.15 66 173.05 66.7875 176.7 68.3625C180.35 69.9375 183.525 72.075 186.225 74.775C188.925 77.475 191.062 80.65 192.638 84.3C194.213 87.95 195 91.85 195 96C195 100.15 194.213 104.05 192.638 107.7C191.062 111.35 188.925 114.525 186.225 117.225C183.525 119.925 180.35 122.062 176.7 123.638C173.05 125.213 169.15 126 165 126ZM159 108C158.15 108 157.438 107.713 156.862 107.138C156.287 106.562 156 105.85 156 105V96C156 95.15 156.287 94.4375 156.862 93.8625C157.438 93.2875 158.15 93 159 93V90C159 88.35 159.588 86.9375 160.763 85.7625C161.938 84.5875 163.35 84 165 84C166.65 84 168.062 84.5875 169.237 85.7625C170.412 86.9375 171 88.35 171 90V93C171.85 93 172.562 93.2875 173.138 93.8625C173.713 94.4375 174 95.15 174 96V105C174 105.85 173.713 106.562 173.138 107.138C172.562 107.713 171.85 108 171 108H159ZM162 93H168V90C168 89.15 167.713 88.4375 167.138 87.8625C166.562 87.2875 165.85 87 165 87C164.15 87 163.438 87.2875 162.862 87.8625C162.287 88.4375 162 89.15 162 90V93Z" fill="#EC5B13"/>
</g>
<defs>
<linearGradient id="paint0_linear_137_86" x1="86.47" y1="-50.3098" x2="253.385" y2="236.576" gradientUnits="userSpaceOnUse">
<stop stop-color="#EC5B13" stop-opacity="0.1"/>
<stop offset="1" stop-color="#FFC107" stop-opacity="0.1"/>
</linearGradient>
</defs>
</svg>
